{
  "asset": {
    "version": "2.0",
    "generator": "THREE.GLTFExporter"
  },
  "scenes": [
    {
      "nodes": [
        2
      ],
      "name": "AuxScene"
    }
  ],
  "scene": 0,
  "nodes": [
    {
      "name": "entity_2",
      "mesh": 0
    },
    {
      "matrix": [
        -0.9848077530122081,
        -0.17101007166283472,
        -0.030153689607045855,
        0,
        9.71445146547012e-17,
        -0.17364817766693097,
        0.984807753012208,
        0,
        -0.1736481776669307,
        0.9698463103929541,
        0.17101007166283477,
        0,
        0,
        0,
        0,
        1
      ],
      "name": "entity_1",
      "children": [
        0
      ]
    },
    {
      "name": "entity_0",
      "children": [
        1
      ]
    }
  ],
  "bufferViews": [
    {
      "buffer": 0,
      "byteOffset": 0,
      "byteLength": 915336,
      "target": 34962,
      "byteStride": 12
    },
    {
      "buffer": 0,
      "byteOffset": 915336,
      "byteLength": 915336,
      "target": 34962,
      "byteStride": 12
    },
    {
      "buffer": 0,
      "byteOffset": 1830672,
      "byteLength": 305112,
      "target": 34963
    }
  ],
  "buffers": [
    {
      "byteLength": 2135784,
      "uri": "data:application/octet-stream;base64,"
    }
  ],
  "accessors": [
    {
      "bufferView": 0,
      "componentType": 5126,
      "count": 76278,
      "max": [
        0.32062381505966187,
        0.6000000238418579,
        0.37471339106559753
      ],
      "min": [
        -2.179374933242798,
        -0.6000000238418579,
        -0.10802842676639557
      ],
      "type": "VEC3"
    },
    {
      "bufferView": 1,
      "componentType": 5126,
      "count": 76278,
      "max": [
        1,
        1,
        1
      ],
      "min": [
        -1,
        -1,
        -1
      ],
      "type": "VEC3"
    },
    {
      "bufferView": 2,
      "componentType": 5125,
      "count": 76278,
      "max": [
        76277
      ],
      "min": [
        0
      ],
      "type": "SCALAR"
    }
  ],
  "materials": [
    {
      "pbrMetallicRoughness": {
        "baseColorFactor": [
          0.4666666666666667,
          0.4666666666666667,
          0.4666666666666667,
          1
        ],
        "metallicFactor": 0.5,
        "roughnessFactor": 0.5
      },
      "name": "entity_3"
    }
  ],
  "meshes": [
    {
      "primitives": [
        {
          "mode": 4,
          "attributes": {
            "POSITION": 0,
            "NORMAL": 1
          },
          "indices": 2,
          "material": 0
        }
      ]
    }
  ]
}